<?xml version="1.0" encoding="utf-8"?>
<!DOCTYPE svg PUBLIC "-//W3C//DTD SVG 1.1//EN" "http://www.w3.org/Graphics/SVG/1.1/DTD/svg11.dtd">
<svg
  version="1.1"
  id="Layer_1"
  xmlns="http://www.w3.org/2000/svg"
  xmlns:xlink="http://www.w3.org/1999/xlink"
  viewBox="0 0 294.825 258.982"
  xml:space="preserve"
>
  <defs id="gradients-001">
    <radialGradient id="radialGradient1">
      <stop offset="0.6" stop-color="#fff" />
      <stop offset="1" stop-color="#555" />
    </radialGradient>
    <linearGradient id="linearGradient8385">
      <stop id="stop8387" offset="0" stop-color="#000" stop-opacity="1" />
      <stop id="stop8389" offset="1" stop-color="#fff" stop-opacity="1" />
    </linearGradient>
    <linearGradient
      x1="-553.26971"
      y1="525.90778"
      x2="-666.11639"
      y2="413.0452"
      id="linearGradient3002"
      xlink:href="#linearGradient8385"
      gradientUnits="userSpaceOnUse"
      gradientTransform="matrix(0.99884,0,0,0.998699,689.00774,-388.84375)"
    />
    <linearGradient
      x1="-666.11664"
      y1="413.04492"
      x2="-553.2699"
      y2="525.90759"
      id="linearGradient3005"
      xlink:href="#linearGradient8385"
      gradientUnits="userSpaceOnUse"
      gradientTransform="matrix(0.99884,0,0,0.998699,689.00774,-388.84375)"
    />
  </defs>
  <g>
    <path
      fill="url(#radialGradient1)"
      d="M273.336,124.488L215.469,23.816c-2.102-3.64-5.985-6.325-10.188-6.325H89.545
        c-4.204,0-8.088,2.685-10.19,6.325l-57.867,100.45c-2.102,3.641-2.102,8.236,0,11.877l57.867,99.847
        c2.102,3.64,5.986,5.501,10.19,5.501h115.735c4.203,0,8.087-1.805,10.188-5.446l57.867-100.01
        C275.439,132.396,275.439,128.128,273.336,124.488 M225.419,172.898c0,1.48-0.891,2.849-2.174,3.59l-73.71,42.527
        c-1.282,0.74-2.888,0.74-4.17,0l-73.767-42.527c-1.282-0.741-2.179-2.109-2.179-3.59V87.843c0-1.481,0.884-2.849,2.167-3.59
        l73.707-42.527c1.282-0.741,2.886-0.741,4.168,0l73.772,42.527c1.283,0.741,2.186,2.109,2.186,3.59V172.898z"
    />
    <g transform="translate(52, 34) scale(1.2)">
      <path
        d="m 79.8646,119.09957 c 35.39768,48.25534 70.03957,-13.46852 69.98868,-50.58675 C 149.79308,24.62677 105.31237,0.09913 79.8356,0.09913 38.94318,0.09913 0,33.89521 0,80.13502 c 0,51.396 44.64038,79.86497 79.8356,79.86497 -7.96447,-1.14675 -34.5062,-6.83395 -34.86292,-67.96677 -0.23987,-41.3466 13.48757,-57.86551 34.80527,-50.59905 0.47743,0.17707 23.51392,9.26451 23.51392,38.95053 0,29.55992 -23.42727,38.71487 -23.42727,38.71487 z"
        id="path7508"
        fill="url(#linearGradient3005)"
      />
      <path
        d="M 79.82327,41.40081 C 56.43322,33.33893 27.78025,52.61662 27.78025,91.22962 c 0,63.04798 46.72055,68.77037 52.38416,68.77037 C 121.05683,159.99999 160,126.20391 160,79.9641 160,28.5681 115.35962,0.09913 80.16441,0.09913 c 9.74811,-1.35 52.54087,10.54991 52.54087,69.0368 0,38.14117 -31.95286,58.90496 -52.73547,50.03344 -0.47743,-0.17707 -23.51392,-9.26451 -23.51392,-38.95053 0,-29.55992 23.36738,-38.81803 23.36738,-38.81803 z"
        id="path7510"
        fill="url(#linearGradient3002)"
      />
    </g>
  </g>
</svg>
